<svg width="18" height="18" viewBox="0 0 18 18" fill="none" xmlns="http://www.w3.org/2000/svg">
<path fill-rule="evenodd" clip-rule="evenodd" d="M2.33335 8.99984C2.33335 12.6817 5.31812 15.6665 9.00002 15.6665C12.6819 15.6665 15.6667 12.6817 15.6667 8.99984C15.6667 5.31794 12.6819 2.33317 9.00002 2.33317C5.31812 2.33317 2.33335 5.31794 2.33335 8.99984ZM9.00002 0.666504C4.39765 0.666504 0.666687 4.39746 0.666687 8.99984C0.666687 13.6022 4.39765 17.3332 9.00002 17.3332C13.6024 17.3332 17.3334 13.6022 17.3334 8.99984C17.3334 4.39746 13.6024 0.666504 9.00002 0.666504Z" fill="black"/>
<path fill-rule="evenodd" clip-rule="evenodd" d="M6.50002 8.99984C6.50002 10.3805 7.61931 11.4998 9.00002 11.4998C10.3807 11.4998 11.5 10.3805 11.5 8.99984C11.5 7.61913 10.3807 6.49984 9.00002 6.49984C7.61931 6.49984 6.50002 7.61913 6.50002 8.99984ZM9.00002 4.83317C6.69883 4.83317 4.83335 6.69865 4.83335 8.99984C4.83335 11.301 6.69883 13.1665 9.00002 13.1665C11.3012 13.1665 13.1667 11.301 13.1667 8.99984C13.1667 6.69865 11.3012 4.83317 9.00002 4.83317Z" fill="black"/>
</svg>
