<svg width="20" height="16" viewBox="0 0 20 16" fill="none" xmlns="http://www.w3.org/2000/svg">
<path d="M13.066 5.99473L12.0053 4.93407L6.93424 10.0051L7.9949 11.0658L13.066 5.99473Z" fill="#747575"/>
<path d="M13.4903 10.4992C13.4903 9.94694 13.0426 9.49922 12.4903 9.49922C11.938 9.49922 11.4903 9.94694 11.4903 10.4992C11.4903 11.0515 11.938 11.4992 12.4903 11.4992C13.0426 11.4992 13.4903 11.0515 13.4903 10.4992Z" fill="#747575"/>
<path d="M8.51807 5.53351C8.51807 4.98122 8.07035 4.53351 7.51807 4.53351C6.96578 4.53351 6.51807 4.98122 6.51807 5.53351C6.51807 6.08579 6.96578 6.53351 7.51807 6.53351C8.07035 6.53351 8.51807 6.08579 8.51807 5.53351Z" fill="#747575"/>
<path fill-rule="evenodd" clip-rule="evenodd" d="M0 4C0 1.79086 1.79086 0 4 0H16C18.2091 0 20 1.79086 20 4V12C20 14.2091 18.2091 16 16 16H4C1.79086 16 0 14.2091 0 12V4ZM4 2H16C17.1046 2 18 2.89543 18 4V12C18 13.1046 17.1046 14 16 14H4C2.89543 14 2 13.1046 2 12V4C2 2.89543 2.89543 2 4 2Z" fill="#747575"/>
</svg>
