<svg width="9" height="10" viewBox="0 0 9 10" fill="none" xmlns="http://www.w3.org/2000/svg">
<path fill-rule="evenodd" clip-rule="evenodd" d="M0.475019 4.75254L3.33854 8.84208C3.61866 9.24212 4.17187 9.33895 4.57652 9.05875L8.30977 6.47366C8.71593 6.19241 8.819 5.6377 8.53997 5.23467L5.68773 1.11488C5.55034 0.916444 5.33744 0.782954 5.09807 0.745173L2.69441 0.365784C2.46524 0.329613 2.23031 0.384106 2.03955 0.51768L1.12308 1.1594C0.928742 1.29548 0.796001 1.50258 0.754054 1.73514L0.329657 4.08815C0.287709 4.32072 0.339998 4.55971 0.475019 4.75254ZM3.55256 3.71548C3.95725 3.43211 4.05738 2.87688 3.77622 2.47534C3.49506 2.0738 2.93906 1.97799 2.53437 2.26136C2.12968 2.54473 2.02955 3.09996 2.31071 3.5015C2.59188 3.90304 3.14787 3.99884 3.55256 3.71548Z" fill="white"/>
</svg>
