<svg width="20" height="20" viewBox="0 0 20 20" fill="none" xmlns="http://www.w3.org/2000/svg">
<path fill-rule="evenodd" clip-rule="evenodd" d="M8.22334 17.8009C8.80282 17.9334 9.39523 18.0012 9.98949 18.0024L9.98535 20.0024C9.24213 20.0009 8.50163 19.9161 7.77765 19.7506L8.22334 17.8009ZM13.4559 17.2154L14.3194 19.0194L14.2275 19.0628C13.5788 19.3653 12.9076 19.5954 12.2215 19.7524L11.7756 17.8027C12.2146 17.7023 12.6462 17.5643 13.0679 17.3888L13.4559 17.2154ZM5.01673 16.2611C5.48204 16.6308 5.98751 16.9475 6.52318 17.2055L5.65516 19.0074C4.98605 18.685 4.35438 18.2893 3.77256 17.827L5.01673 16.2611ZM10 0C15.5229 0 20 4.47715 20 10C20 12.9538 18.7101 15.6978 16.5213 17.5813L16.2744 17.787L15.0187 16.2304C16.8913 14.7198 18 12.4519 18 10C18 5.58172 14.4183 2 10 2C7.72898 2 5.61446 2.9506 4.11179 4.58426L3.93611 4.782L5.25801 5.89156C5.46955 6.06906 5.49714 6.38443 5.31964 6.59597C5.25266 6.6758 5.1624 6.73271 5.06149 6.75873L0.790104 7.86039C0.522712 7.92936 0.250041 7.7685 0.181076 7.50111C0.167296 7.44768 0.162455 7.39234 0.166748 7.33734L0.509952 2.93954C0.531437 2.66423 0.772033 2.45847 1.04734 2.47996C1.15123 2.48806 1.25 2.52843 1.32983 2.59542L2.40311 3.496L2.61309 3.25944C4.49161 1.20105 7.14926 0 10 0ZM2.81529 13.5187C3.0791 14.058 3.39856 14.5603 3.76822 15.02L2.20956 16.2732C1.74714 15.6981 1.34784 15.0703 1.01874 14.3976L2.81529 13.5187ZM1.99807 10.0539C2.00163 10.6464 2.07137 11.2376 2.20741 11.8179L0.260209 12.2744C0.0898907 11.5479 0.00256043 10.8076 -0.00189209 10.0659L1.99807 10.0539ZM11 6V10H14V12H9.00001V6H11Z" fill="#535454"/>
</svg>
