<svg width="21" height="20" viewBox="0 0 21 20" fill="none" xmlns="http://www.w3.org/2000/svg">
<path d="M10.5 5C9.51109 5 8.54439 5.29324 7.72215 5.84265C6.8999 6.39206 6.25904 7.17295 5.8806 8.08658C5.50216 9.00021 5.40315 10.0055 5.59607 10.9755C5.789 11.9454 6.2652 12.8363 6.96447 13.5355C7.66373 14.2348 8.55464 14.711 9.52455 14.9039C10.4945 15.0969 11.4998 14.9978 12.4134 14.6194C13.327 14.241 14.1079 13.6001 14.6573 12.7779C15.2068 11.9556 15.5 10.9889 15.5 10C15.5 8.67392 14.9732 7.40215 14.0355 6.46447C13.0979 5.52678 11.8261 5 10.5 5ZM10.5 13C9.90666 13 9.32664 12.8241 8.83329 12.4944C8.33994 12.1648 7.95542 11.6962 7.72836 11.1481C7.5013 10.5999 7.44189 9.99667 7.55764 9.41473C7.6734 8.83279 7.95912 8.29824 8.37868 7.87868C8.79824 7.45912 9.33279 7.1734 9.91473 7.05764C10.4967 6.94189 11.0999 7.0013 11.6481 7.22836C12.1962 7.45542 12.6648 7.83994 12.9944 8.33329C13.3241 8.82664 13.5 9.40666 13.5 10C13.5 10.7956 13.1839 11.5587 12.6213 12.1213C12.0587 12.6839 11.2956 13 10.5 13ZM15.5 4C15.3022 4 15.1089 4.05865 14.9444 4.16853C14.78 4.27841 14.6518 4.43459 14.5761 4.61732C14.5004 4.80004 14.4806 5.00111 14.5192 5.19509C14.5578 5.38907 14.653 5.56725 14.7929 5.70711C14.9327 5.84696 15.1109 5.9422 15.3049 5.98079C15.4989 6.01937 15.7 5.99957 15.8827 5.92388C16.0654 5.84819 16.2216 5.72002 16.3315 5.55557C16.4414 5.39112 16.5 5.19778 16.5 5C16.5 4.73478 16.3946 4.48043 16.2071 4.29289C16.0196 4.10536 15.7652 4 15.5 4ZM20.44 6.24C20.4234 5.38542 20.2611 4.53995 19.96 3.74C19.6808 3.01207 19.2516 2.35099 18.7003 1.7997C18.149 1.2484 17.4879 0.819216 16.76 0.54C15.9601 0.238899 15.1146 0.0765676 14.26 0.0599999C13.29 -5.58794e-08 12.97 0 10.5 0C8.03 0 7.71 -5.58794e-08 6.74 0.0599999C5.88542 0.0765676 5.03995 0.238899 4.24 0.54C3.51207 0.819216 2.85099 1.2484 2.2997 1.7997C1.7484 2.35099 1.31922 3.01207 1.04 3.74C0.738899 4.53995 0.576568 5.38542 0.56 6.24C0.5 7.22 0.5 7.54 0.5 10C0.5 12.46 0.5 12.78 0.56 13.76C0.576568 14.6146 0.738899 15.4601 1.04 16.26C1.31922 16.9879 1.7484 17.649 2.2997 18.2003C2.85099 18.7516 3.51207 19.1808 4.24 19.46C5.03995 19.7611 5.88542 19.9234 6.74 19.94C7.74 19.94 8.03 20 10.5 20C12.97 20 13.29 20 14.26 19.94C15.1146 19.9234 15.9601 19.7611 16.76 19.46C17.4879 19.1808 18.149 18.7516 18.7003 18.2003C19.2516 17.649 19.6808 16.9879 19.96 16.26C20.2611 15.4601 20.4234 14.6146 20.44 13.76C20.44 12.76 20.5 12.46 20.5 10C20.5 7.54 20.5 7.22 20.44 6.24ZM18.44 13.67C18.4225 14.3046 18.3043 14.9324 18.09 15.53C17.9128 16.0023 17.6327 16.4293 17.27 16.78C16.9214 17.1428 16.4936 17.4201 16.02 17.59C15.421 17.8131 14.789 17.9348 14.15 17.95C13.21 17.95 12.92 18 10.49 18C8.06 18 7.78 18 6.84 18C6.20202 17.9835 5.57075 17.8654 4.97 17.65C4.49766 17.4728 4.07067 17.1927 3.72 16.83C3.35715 16.4814 3.07992 16.0536 2.91 15.58C2.6878 14.9842 2.56615 14.3557 2.55 13.72C2.55 12.72 2.55 12.47 2.55 10.05C2.55 7.63 2.55 7.34 2.55 6.38C2.56724 5.74121 2.68884 5.10954 2.91 4.51C3.08256 4.04063 3.35953 3.61662 3.72 3.27C4.06858 2.90715 4.49641 2.62992 4.97 2.46C5.56899 2.2369 6.20099 2.11523 6.84 2.1C7.78 2 8.07 2 10.5 2C12.93 2 13.22 2 14.16 2C14.8021 2.01633 15.4373 2.13794 16.04 2.36C16.5094 2.53256 16.9334 2.80953 17.28 3.17C17.6428 3.51858 17.9201 3.94641 18.09 4.42C18.3348 5.02856 18.4735 5.67458 18.5 6.33C18.5 7.33 18.55 7.58 18.55 10C18.55 12.42 18.5 12.71 18.5 13.67H18.44Z" fill="#1C1C1E"/>
</svg>
