<svg width="14" height="19" viewBox="0 0 14 19" fill="none" xmlns="http://www.w3.org/2000/svg">
<path fill-rule="evenodd" clip-rule="evenodd" d="M2.00004 9.16667C1.99872 10.4774 2.51214 11.7362 3.42975 12.6721C4.34736 13.6081 5.59579 14.1462 6.90627 14.1708C8.21676 14.1954 9.48449 13.7044 10.4366 12.8035C11.3886 11.9027 11.9489 10.664 11.9967 9.35417L12 9.16667H13.6667C13.6667 10.7904 13.0742 12.3583 12.0003 13.5762C10.9265 14.7941 9.44514 15.5783 7.83421 15.7817L7.83337 18.3333H6.16671V15.7817C4.59115 15.5828 3.13828 14.8282 2.06953 13.6535C1.00079 12.4789 0.386323 10.9615 0.336708 9.37417L0.333374 9.16667H2.00004ZM7.00004 0C7.85524 -6.68962e-07 8.67773 0.328696 9.29738 0.918103C9.91704 1.50751 10.2864 2.31253 10.3292 3.16667L10.3334 3.33333V9.16667C10.3334 10.0363 9.99355 10.8715 9.38637 11.4941C8.77919 12.1166 7.95276 12.4773 7.0834 12.499C6.21404 12.5208 5.37061 12.2019 4.73306 11.6105C4.09552 11.019 3.71434 10.2019 3.67087 9.33333L3.66671 9.16667V3.33333C3.66671 2.44928 4.0179 1.60143 4.64302 0.976311C5.26814 0.35119 6.11599 0 7.00004 0ZM7.00004 1.66667C6.57956 1.66653 6.17457 1.82534 5.86625 2.11125C5.55793 2.39716 5.36908 2.78904 5.33754 3.20833L5.33337 3.33333V9.16667C5.33144 9.59915 5.4977 10.0155 5.79702 10.3276C6.09635 10.6398 6.5053 10.8234 6.93749 10.8396C7.36968 10.8558 7.79124 10.7034 8.11314 10.4146C8.43503 10.1257 8.63204 9.72308 8.66254 9.29167L8.66671 9.16667V3.33333C8.66671 2.89131 8.49111 2.46738 8.17855 2.15482C7.86599 1.84226 7.44207 1.66667 7.00004 1.66667Z" fill="black"/>
</svg>
