<svg width="14" height="13" viewBox="0 0 14 13" fill="none" xmlns="http://www.w3.org/2000/svg">
<path fill-rule="evenodd" clip-rule="evenodd" d="M12.8926 1.75731C14.2847 3.14946 14.3234 5.38255 13.0086 6.82141L12.8926 6.94276L7.00001 12.8353L1.10745 6.94274C-0.324472 5.51082 -0.324472 3.18921 1.10745 1.75729C2.4996 0.365145 4.73269 0.326474 6.17155 1.64128L6.2929 1.75729L6.99951 2.46335L7.70711 1.75731C9.13904 0.32539 11.4606 0.32539 12.8926 1.75731ZM8.74967 2.60598L8.64992 2.70012L6.99951 4.35002L5.35009 2.7001C4.50186 1.85188 3.16306 1.79323 2.247 2.52417L2.14323 2.61202L2.05026 2.7001C1.17158 3.57878 1.1402 4.9839 1.95611 5.90019L2.05026 5.99993L6.99951 10.95L11.9498 5.99995C12.798 5.15173 12.8566 3.81292 12.1257 2.89686L12.0378 2.79309L11.9498 2.70012C11.1036 1.85399 9.76931 1.79355 8.85344 2.51881L8.74967 2.60598Z" fill="white"/>
</svg>
