<svg width="22" height="21" viewBox="0 0 22 21" fill="none" xmlns="http://www.w3.org/2000/svg">
<path fill-rule="evenodd" clip-rule="evenodd" d="M18.5 9.5C18.5 11.3141 17.9628 13.004 17.0388 14.4177L21.3891 18.7678L19.2678 20.8891L15.0017 16.6231C13.4806 17.7996 11.5716 18.5 9.5 18.5C4.52944 18.5 0.5 14.4706 0.5 9.5C0.5 4.52944 4.52944 0.5 9.5 0.5C14.4706 0.5 18.5 4.52944 18.5 9.5ZM3.5 9.5C3.5 6.18629 6.18629 3.5 9.5 3.5C12.8137 3.5 15.5 6.18629 15.5 9.5C15.5 12.8137 12.8137 15.5 9.5 15.5C6.18629 15.5 3.5 12.8137 3.5 9.5Z" fill="black"/>
</svg>
