<svg width="151" height="90" viewBox="0 0 151 90" fill="none" xmlns="http://www.w3.org/2000/svg">
<circle cx="78.5002" cy="41.5" r="24.5" fill="#FAFAFA"/>
<circle cx="78.5002" cy="41.5" r="23.1" stroke="#EDEDED" stroke-width="2.8"/>
<mask id="mask0_386_2399" style="mask-type:luminance" maskUnits="userSpaceOnUse" x="54" y="17" width="50" height="49">
<circle cx="78.5002" cy="41.5" r="23.1" fill="white" stroke="white" stroke-width="2.8"/>
</mask>
<g mask="url(#mask0_386_2399)">
</g>
<ellipse cx="81.146" cy="26.6194" rx="7.17389" ry="1.61943" stroke="#EDEDED" stroke-width="2.8" stroke-linecap="round"/>
<path fill-rule="evenodd" clip-rule="evenodd" d="M95.5211 62.6008C95.5211 62.6008 96.242 62.3317 96.737 61.8367C97.2319 61.3418 97.501 60.6209 97.501 60.6209L104.289 67.4092C104.836 67.9559 104.836 68.8423 104.289 69.3891C103.743 69.9358 102.856 69.9358 102.309 69.3891L95.5211 62.6008Z" fill="#EDEDED"/>
<path fill-rule="evenodd" clip-rule="evenodd" d="M37.0002 41.4C37.0002 40.6268 37.627 40 38.4002 40H51.2859V42.8H38.4002C37.627 42.8 37.0002 42.1732 37.0002 41.4Z" fill="#F7F7F7"/>
<path fill-rule="evenodd" clip-rule="evenodd" d="M43.0002 49.4C43.0002 48.6268 43.627 48 44.4002 48H52.0002L53.0002 50.8H44.4002C43.627 50.8 43.0002 50.1732 43.0002 49.4Z" fill="#F7F7F7"/>
<path fill-rule="evenodd" clip-rule="evenodd" d="M38.0002 57.4C38.0002 56.6268 38.627 56 39.4002 56H56.4817L58.0002 58.8H39.4002C38.627 58.8 38.0002 58.1732 38.0002 57.4Z" fill="#F7F7F7"/>
<rect x="32.0002" y="56" width="4" height="2.8" rx="1.4" fill="#F7F7F7"/>
</svg>
