<svg width="18" height="16" viewBox="0 0 18 16" fill="none" xmlns="http://www.w3.org/2000/svg">
<path fill-rule="evenodd" clip-rule="evenodd" d="M6.08335 9.25008C7.69418 9.25008 9.00002 10.5559 9.00002 12.1667C9.00002 13.7776 7.69418 15.0834 6.08335 15.0834C4.76235 15.0834 3.64646 14.2052 3.28768 13.0008L0.666687 13.0001V11.3334L3.28743 11.3336C3.64595 10.1287 4.76205 9.25008 6.08335 9.25008ZM6.08335 10.9167C5.393 10.9167 4.83335 11.4764 4.83335 12.1667C4.83335 12.8571 5.393 13.4167 6.08335 13.4167C6.77371 13.4167 7.33335 12.8571 7.33335 12.1667C7.33335 11.4764 6.77371 10.9167 6.08335 10.9167ZM17.3334 11.3334V13.0001H10.6667V11.3334H17.3334ZM11.9167 0.916748C13.238 0.916748 14.3541 1.79536 14.7126 3.00022L17.3334 3.00008V4.66675L14.7124 4.66745C14.3536 5.87188 13.2377 6.75008 11.9167 6.75008C10.3059 6.75008 9.00002 5.44425 9.00002 3.83341C9.00002 2.22258 10.3059 0.916748 11.9167 0.916748ZM11.9167 2.58341C11.2263 2.58341 10.6667 3.14306 10.6667 3.83341C10.6667 4.52377 11.2263 5.08342 11.9167 5.08342C12.607 5.08342 13.1667 4.52377 13.1667 3.83341C13.1667 3.14306 12.607 2.58341 11.9167 2.58341ZM7.33335 3.00008V4.66675H0.666687V3.00008H7.33335Z" fill="#1C1C1E"/>
</svg>
