<svg width="18" height="20" viewBox="0 0 18 20" fill="none" xmlns="http://www.w3.org/2000/svg">
<path fill-rule="evenodd" clip-rule="evenodd" d="M6 5C6 6.65685 7.34315 8 9 8C10.6569 8 12 6.65685 12 5C12 3.34315 10.6569 2 9 2C7.34315 2 6 3.34315 6 5ZM9 0C6.23858 0 4 2.23858 4 5C4 7.76142 6.23858 10 9 10C11.7614 10 14 7.76142 14 5C14 2.23858 11.7614 0 9 0Z" fill="#747575"/>
<path fill-rule="evenodd" clip-rule="evenodd" d="M13.5 14H4.5C3.39543 14 2.5 14.8954 2.5 16C2.5 17.1046 3.39543 18 4.5 18H13.5C14.6046 18 15.5 17.1046 15.5 16C15.5 14.8954 14.6046 14 13.5 14ZM4.5 12C2.29086 12 0.5 13.7909 0.5 16C0.5 18.2091 2.29086 20 4.5 20H13.5C15.7091 20 17.5 18.2091 17.5 16C17.5 13.7909 15.7091 12 13.5 12H4.5Z" fill="#747575"/>
</svg>
